<?xml version="1.0" encoding="utf-8" standalone="no"?>
<!DOCTYPE svg PUBLIC "-//W3C//DTD SVG 1.1//EN"
  "http://www.w3.org/Graphics/SVG/1.1/DTD/svg11.dtd">
<!-- Created with matplotlib (http://matplotlib.org/) -->
<svg height="220pt" version="1.1" viewBox="0 0 582 220" width="582pt" xmlns="http://www.w3.org/2000/svg" xmlns:xlink="http://www.w3.org/1999/xlink">
 <defs>
  <style type="text/css">
*{stroke-linecap:butt;stroke-linejoin:round;}
  </style>
 </defs>
 <g id="figure_1">
  <g id="patch_1">
   <path d="M 0 220.690625 
L 582.335938 220.690625 
L 582.335938 0 
L 0 0 
z
" style="fill:#ffffff;"/>
  </g>
  <g id="axes_1">
   <g id="patch_2">
    <path d="M 39.485938 191.8 
L 390.869866 191.8 
L 390.869866 16.8 
L 39.485938 16.8 
z
" style="fill:#ffffff;"/>
   </g>
   <g id="matplotlib.axis_1">
    <g id="xtick_1">
     <g id="line2d_1">
      <defs>
       <path d="M 0 0 
L 0 -3.5 
" id="m5797e01de4" style="stroke:#000000;stroke-width:0.8;"/>
      </defs>
      <g>
       <use style="stroke:#000000;stroke-width:0.8;" x="39.485938" xlink:href="#m5797e01de4" y="191.8"/>
      </g>
     </g>
     <g id="text_1">
      <text style="font-family:Arial;font-size:10px;font-style:normal;font-weight:400;text-anchor:middle;" transform="rotate(-0, 39.485938, 201.957812)" x="39.485938" y="201.957812">0</text>
     </g>
    </g>
    <g id="xtick_2">
     <g id="line2d_2">
      <g>
       <use style="stroke:#000000;stroke-width:0.8;" x="127.33192" xlink:href="#m5797e01de4" y="191.8"/>
      </g>
     </g>
     <g id="text_2">
      <text style="font-family:Arial;font-size:10px;font-style:normal;font-weight:400;text-anchor:middle;" transform="rotate(-0, 127.33192, 201.957812)" x="127.33192" y="201.957812">20</text>
     </g>
    </g>
    <g id="xtick_3">
     <g id="line2d_3">
      <g>
       <use style="stroke:#000000;stroke-width:0.8;" x="215.177902" xlink:href="#m5797e01de4" y="191.8"/>
      </g>
     </g>
     <g id="text_3">
      <text style="font-family:Arial;font-size:10px;font-style:normal;font-weight:400;text-anchor:middle;" transform="rotate(-0, 215.177902, 201.957812)" x="215.177902" y="201.957812">40</text>
     </g>
    </g>
    <g id="xtick_4">
     <g id="line2d_4">
      <g>
       <use style="stroke:#000000;stroke-width:0.8;" x="303.023884" xlink:href="#m5797e01de4" y="191.8"/>
      </g>
     </g>
     <g id="text_4">
      <text style="font-family:Arial;font-size:10px;font-style:normal;font-weight:400;text-anchor:middle;" transform="rotate(-0, 303.023884, 201.957812)" x="303.023884" y="201.957812">60</text>
     </g>
    </g>
    <g id="xtick_5">
     <g id="line2d_5">
      <g>
       <use style="stroke:#000000;stroke-width:0.8;" x="390.869866" xlink:href="#m5797e01de4" y="191.8"/>
      </g>
     </g>
     <g id="text_5">
      <text style="font-family:Arial;font-size:10px;font-style:normal;font-weight:400;text-anchor:middle;" transform="rotate(-0, 390.869866, 201.957812)" x="390.869866" y="201.957812">80</text>
     </g>
    </g>
    <g id="text_6">
     <text style="font-family:Arial;font-size:10px;font-style:normal;font-weight:400;text-anchor:middle;" transform="rotate(-0, 215.177902, 215.103125)" x="215.177902" y="215.103125">Time /h</text>
    </g>
   </g>
   <g id="matplotlib.axis_2">
    <g id="ytick_1">
     <g id="line2d_6">
      <defs>
       <path d="M 0 0 
L 3.5 0 
" id="mf65fb010cd" style="stroke:#000000;stroke-width:0.8;"/>
      </defs>
      <g>
       <use style="stroke:#000000;stroke-width:0.8;" x="39.485938" xlink:href="#mf65fb010cd" y="183.845455"/>
      </g>
     </g>
     <g id="text_7">
      <text style="font-family:Arial;font-size:10px;font-style:normal;font-weight:400;text-anchor:end;" transform="rotate(-0, 36.485938, 187.424361)" x="36.485938" y="187.424361">−1.0</text>
     </g>
    </g>
    <g id="ytick_2">
     <g id="line2d_7">
      <g>
       <use style="stroke:#000000;stroke-width:0.8;" x="39.485938" xlink:href="#mf65fb010cd" y="144.072727"/>
      </g>
     </g>
     <g id="text_8">
      <text style="font-family:Arial;font-size:10px;font-style:normal;font-weight:400;text-anchor:end;" transform="rotate(-0, 36.485938, 147.651634)" x="36.485938" y="147.651634">−0.5</text>
     </g>
    </g>
    <g id="ytick_3">
     <g id="line2d_8">
      <g>
       <use style="stroke:#000000;stroke-width:0.8;" x="39.485938" xlink:href="#mf65fb010cd" y="104.3"/>
      </g>
     </g>
     <g id="text_9">
      <text style="font-family:Arial;font-size:10px;font-style:normal;font-weight:400;text-anchor:end;" transform="rotate(-0, 36.485938, 107.878906)" x="36.485938" y="107.878906">0.0</text>
     </g>
    </g>
    <g id="ytick_4">
     <g id="line2d_9">
      <g>
       <use style="stroke:#000000;stroke-width:0.8;" x="39.485938" xlink:href="#mf65fb010cd" y="64.527273"/>
      </g>
     </g>
     <g id="text_10">
      <text style="font-family:Arial;font-size:10px;font-style:normal;font-weight:400;text-anchor:end;" transform="rotate(-0, 36.485938, 68.106179)" x="36.485938" y="68.106179">0.5</text>
     </g>
    </g>
    <g id="ytick_5">
     <g id="line2d_10">
      <g>
       <use style="stroke:#000000;stroke-width:0.8;" x="39.485938" xlink:href="#mf65fb010cd" y="24.754545"/>
      </g>
     </g>
     <g id="text_11">
      <text style="font-family:Arial;font-size:10px;font-style:normal;font-weight:400;text-anchor:end;" transform="rotate(-0, 36.485938, 28.333452)" x="36.485938" y="28.333452">1.0</text>
     </g>
    </g>
    <g id="text_12">
     <text style="font-family:Arial;font-size:10px;font-style:normal;font-weight:400;text-anchor:middle;" transform="rotate(-90, 10.757813, 104.3)" x="10.757813" y="104.3">State Value</text>
    </g>
   </g>
   <g id="line2d_11">
    <path clip-path="url(#pdf31cee102)" d="M 39.485938 24.757032 
L 40.385922 24.868754 
L 41.340727 25.217165 
L 42.377765 25.840085 
L 43.519877 26.795314 
L 44.7762 28.146716 
L 46.146735 29.958714 
L 47.617775 32.282677 
L 49.175616 35.170616 
L 50.801983 38.665699 
L 52.492309 42.839176 
L 54.251161 47.79071 
L 56.101383 53.683523 
L 58.088657 60.779454 
L 60.295218 69.51349 
L 62.894665 80.755723 
L 66.366685 96.842487 
L 75.960426 141.791872 
L 78.929917 154.391493 
L 81.24612 163.3035 
L 83.105478 169.620598 
L 84.654182 174.135343 
L 85.165848 175.45358 
L 85.17683 175.213906 
L 85.512875 170.3752 
L 85.846723 168.358671 
L 86.178374 167.54824 
L 86.516615 167.25287 
L 86.951496 167.18245 
L 89.609103 167.132323 
L 90.630415 166.742182 
L 91.69785 166.091102 
L 92.833373 165.130142 
L 94.047965 163.801548 
L 95.352609 162.034307 
L 96.756088 159.746728 
L 98.26719 156.844502 
L 99.8947 153.222014 
L 101.660581 148.731231 
L 103.597778 143.176473 
L 105.772184 136.241023 
L 107.744963 130.029248 
L 110.248824 123.286312 
L 113.361957 114.224801 
L 118.736912 97.75484 
L 123.552671 83.29834 
L 126.657459 74.665637 
L 129.219743 68.17231 
L 131.448179 63.108664 
L 133.417883 59.164522 
L 135.178932 56.115812 
L 136.773057 53.783268 
L 138.225296 52.037626 
L 139.560688 50.768596 
L 140.795926 49.892194 
L 141.947702 49.339004 
L 143.049401 49.052034 
L 144.117715 49.001928 
L 145.177683 49.175114 
L 146.254343 49.57832 
L 147.372734 50.23892 
L 148.549549 51.19839 
L 149.801479 52.513973 
L 151.145218 54.259948 
L 152.589111 56.514509 
L 154.141505 59.364594 
L 155.827438 62.940894 
L 157.671949 67.394053 
L 159.716768 72.932038 
L 162.053705 79.928281 
L 164.874722 89.112666 
L 168.872553 102.966208 
L 176.167134 128.293411 
L 179.29696 138.290691 
L 181.875937 145.814387 
L 184.087681 151.609487 
L 186.024 156.084283 
L 187.734972 159.50204 
L 189.270673 162.092731 
L 190.581027 163.918593 
L 190.581027 163.918593 
L 190.928053 159.213911 
L 191.288258 157.02094 
L 191.679211 155.895861 
L 192.169002 155.157936 
L 193.177135 154.148229 
L 194.64431 152.567335 
L 196.04779 150.709218 
L 197.554499 148.333372 
L 199.186401 145.331168 
L 200.967657 141.572822 
L 202.935603 136.88347 
L 205.160525 130.98477 
L 207.776401 123.390246 
L 211.176381 112.785696 
L 212.984871 107.369256 
L 221.848539 87.167365 
L 224.819787 81.058197 
L 227.315301 76.416862 
L 229.510353 72.787951 
L 231.480057 69.947224 
L 233.266144 67.747953 
L 234.910346 66.065721 
L 236.429355 64.821171 
L 237.839863 63.944215 
L 239.175256 63.369999 
L 240.452225 63.059912 
L 241.687463 62.986438 
L 242.914355 63.136643 
L 244.149593 63.51407 
L 245.418216 64.138224 
L 246.736916 65.039883 
L 248.130732 66.269892 
L 249.60801 67.878136 
L 251.193788 69.942644 
L 252.90476 72.545164 
L 254.774309 75.805114 
L 256.852514 79.891492 
L 259.214489 85.046762 
L 262.018813 91.727378 
L 265.807989 101.378888 
L 274.287732 123.138956 
L 277.292365 130.132755 
L 279.804572 135.437564 
L 281.999623 139.572898 
L 283.960981 142.811974 
L 285.738722 145.333608 
L 287.357885 147.258112 
L 288.843509 148.691389 
L 290.220633 149.721782 
L 291.514294 150.418738 
L 292.73284 150.828623 
L 293.909655 150.992997 
L 295.061431 150.93076 
L 295.996205 150.716765 
L 295.996205 150.716765 
" style="fill:none;stroke:#377eb8;stroke-linecap:square;stroke-width:0.75;"/>
   </g>
   <g id="line2d_12">
    <path clip-path="url(#pdf31cee102)" d="M 39.485938 96.326842 
L 45.507152 124.489286 
L 48.851256 139.052267 
L 51.601461 150.073283 
L 53.967917 158.672315 
L 56.041993 165.403763 
L 57.887646 170.668742 
L 59.545992 174.753379 
L 61.044443 177.8759 
L 62.401272 180.210572 
L 63.634753 181.909524 
L 64.758591 183.095899 
L 65.791061 183.875738 
L 66.750435 184.330548 
L 67.654987 184.519226 
L 68.536698 184.477714 
L 69.422977 184.211304 
L 70.341235 183.697902 
L 71.314314 182.891176 
L 72.360489 181.724396 
L 73.493464 180.11447 
L 74.722376 177.967057 
L 76.060932 175.162652 
L 77.513698 171.584777 
L 79.098949 167.069869 
L 80.839528 161.417438 
L 82.771982 154.357958 
L 84.978542 145.41944 
L 85.231739 143.863544 
L 85.677602 140.225133 
L 86.354084 136.642945 
L 88.212212 128.467912 
L 95.321859 98.108508 
L 98.229852 86.751285 
L 100.626091 78.254047 
L 102.708249 71.658318 
L 104.564181 66.490537 
L 106.237814 62.463753 
L 107.419461 60.111826 
L 109.055317 57.715918 
L 110.557633 55.896297 
L 111.943103 54.556721 
L 113.228418 53.614345 
L 114.430271 53.000962 
L 115.573701 52.661505 
L 116.683746 52.56193 
L 117.777099 52.686418 
L 118.887144 53.038874 
L 120.030573 53.639175 
L 121.232427 54.527491 
L 122.509396 55.756401 
L 123.878173 57.393372 
L 125.347105 59.508081 
L 126.941229 62.206928 
L 128.668893 65.583329 
L 130.563482 69.79047 
L 132.658378 75.002213 
L 135.020354 81.495569 
L 137.791293 89.79233 
L 141.396853 101.34316 
L 150.828062 131.897352 
L 153.599002 139.926284 
L 155.919246 145.994835 
L 157.947373 150.701838 
L 159.758499 154.36615 
L 161.402701 157.208294 
L 162.896672 159.362567 
L 164.265449 160.960204 
L 165.525726 162.101611 
L 166.694194 162.870348 
L 167.795893 163.335533 
L 168.847514 163.541843 
L 169.874097 163.517826 
L 170.90068 163.270596 
L 171.952302 162.786226 
L 173.054001 162.029244 
L 174.222469 160.949985 
L 175.474399 159.482425 
L 176.826484 157.543181 
L 178.28707 155.046356 
L 179.872848 151.880302 
L 181.600512 147.918094 
L 183.495101 142.998954 
L 185.598344 136.898947 
L 187.985358 129.268501 
L 190.587616 120.213364 
L 191.009319 116.885358 
L 191.597946 114.051449 
L 192.762021 109.741578 
L 195.891847 99.136627 
L 198.619738 90.613734 
L 200.910551 84.158233 
L 202.920229 79.134954 
L 204.723448 75.204664 
L 206.357547 72.156421 
L 207.851078 69.823685 
L 209.221612 68.080221 
L 210.484524 66.820009 
L 211.657386 65.952938 
L 212.659369 65.466508 
L 213.944684 65.28668 
L 215.204961 65.333566 
L 216.473584 65.604449 
L 217.767245 66.110954 
L 219.110984 66.880915 
L 220.521492 67.952131 
L 222.015463 69.373494 
L 223.609587 71.204695 
L 225.328905 73.527384 
L 227.198455 76.437841 
L 229.251621 80.058529 
L 231.546826 84.573144 
L 234.184227 90.272127 
L 237.422553 97.830112 
L 242.897662 111.285628 
L 247.604921 122.603629 
L 250.584515 129.203935 
L 253.038299 134.119721 
L 255.174927 137.920665 
L 257.086207 140.883118 
L 258.822218 143.177592 
L 260.416342 144.927247 
L 261.885274 146.220347 
L 263.262397 147.143893 
L 264.556059 147.750026 
L 265.791297 148.088072 
L 266.99315 148.188711 
L 268.186657 148.064617 
L 269.38851 147.713987 
L 270.623748 147.118778 
L 271.91741 146.242809 
L 273.286187 145.039184 
L 274.738427 143.458343 
L 276.299166 141.421975 
L 277.985099 138.846664 
L 279.821264 135.624032 
L 281.841045 131.6155 
L 284.09452 126.631741 
L 286.681843 120.347069 
L 289.828361 112.087584 
L 294.760967 98.417761 
L 295.996205 94.970818 
L 295.996205 94.970818 
" style="fill:none;stroke:#e41a1c;stroke-linecap:square;stroke-width:0.75;"/>
   </g>
   <g id="line2d_13">
    <path clip-path="url(#pdf31cee102)" d="M 39.485938 104.3 
L 85.165848 104.3 
L 85.165848 104.3 
L 85.515071 62.962614 
L 85.864294 44.852429 
L 86.213516 36.918231 
L 86.562739 33.442203 
L 86.914158 31.913183 
L 87.274363 31.2362 
L 87.680691 30.924977 
L 88.267122 30.780227 
L 89.657423 30.733757 
L 107.127344 30.73195 
L 107.127344 30.73195 
L 108.287466 44.429004 
L 109.447588 55.575912 
L 110.60771 64.647467 
L 111.767833 72.030057 
L 112.936301 78.077036 
L 114.104769 82.990888 
L 115.281584 87.009592 
L 116.466745 90.291184 
L 117.668598 92.983549 
L 118.89549 95.199023 
L 120.155767 97.024028 
L 121.46612 98.534568 
L 122.843244 99.785359 
L 124.320522 100.827116 
L 125.939685 101.694958 
L 127.759157 102.414222 
L 129.870747 103.003904 
L 132.407992 103.474046 
L 135.621281 103.833195 
L 140.019729 104.086247 
L 146.930385 104.237348 
L 162.178898 104.295822 
L 190.581027 104.299973 
L 190.581027 104.299973 
L 190.930249 62.962603 
L 191.279472 44.85242 
L 191.628695 36.918225 
L 191.977918 33.442199 
L 192.329337 31.913183 
L 192.689541 31.236199 
L 193.09587 30.924976 
L 193.6823 30.780228 
L 195.072602 30.733757 
L 212.542522 30.73195 
L 212.542522 30.73195 
L 213.702645 44.429006 
L 214.862767 55.575915 
L 216.022889 64.647466 
L 217.183011 72.030056 
L 218.35148 78.077035 
L 219.519948 82.990886 
L 220.696763 87.009589 
L 221.881923 90.291181 
L 223.083777 92.983546 
L 224.310668 95.199021 
L 225.570945 97.024026 
L 226.881299 98.534565 
L 228.258422 99.785357 
L 229.7357 100.827114 
L 231.354864 101.694957 
L 233.174336 102.414221 
L 235.285925 103.003903 
L 237.823171 103.474045 
L 241.036459 103.833194 
L 245.434908 104.086247 
L 252.345564 104.237348 
L 267.594077 104.295822 
L 295.996205 104.299973 
L 295.996205 104.299973 
" style="fill:none;stroke:#ff7f00;stroke-linecap:square;stroke-width:0.75;"/>
   </g>
   <g id="patch_3">
    <path d="M 39.485938 191.8 
L 39.485938 16.8 
" style="fill:none;stroke:#000000;stroke-linecap:square;stroke-linejoin:miter;stroke-width:0.5;"/>
   </g>
   <g id="patch_4">
    <path d="M 390.869866 191.8 
L 390.869866 16.8 
" style="fill:none;stroke:#000000;stroke-linecap:square;stroke-linejoin:miter;stroke-width:0.5;"/>
   </g>
   <g id="patch_5">
    <path d="M 39.485938 191.8 
L 390.869866 191.8 
" style="fill:none;stroke:#000000;stroke-linecap:square;stroke-linejoin:miter;stroke-width:0.5;"/>
   </g>
   <g id="patch_6">
    <path d="M 39.485938 16.8 
L 390.869866 16.8 
" style="fill:none;stroke:#000000;stroke-linecap:square;stroke-linejoin:miter;stroke-width:0.5;"/>
   </g>
   <g id="text_13">
    <!-- $\tau$ = 24.0, Aiming Blind -->
    <g transform="translate(166.827902 10.8)">
     <text>
      <tspan style="font-family:STIXNonUnicode;font-size:10px;font-style:italic;font-weight:italic;" x="0" y="-0.8125"></tspan>
      <tspan style="font-family:Arial;font-size:10px;font-style:regular;font-weight:regular;" x="4.679993 7.458313 13.298157 16.076477 21.638 27.199524 29.977844 35.539368 38.317688 41.096008 47.76593 49.98761 58.317688 60.539368 66.100891 71.662415 74.440735 81.110657 83.332336 85.554016 91.11554" y="-0.8125"> = 24.0, Aiming Blind</tspan>
     </text>
    </g>
   </g>
   <g id="legend_1">
    <g id="line2d_14">
     <path d="M 346.356429 27.44548 
L 352.187429 27.44548 
L 358.018429 27.44548 
" style="fill:none;stroke:#377eb8;stroke-linecap:square;stroke-width:0.75;"/>
    </g>
    <g id="line2d_15"/>
    <g id="text_14">
     <text style="font-family:Arial;font-size:8.33px;font-style:normal;font-weight:400;text-anchor:start;" transform="rotate(-0, 367.181429, 30.36098)" x="367.181429" y="30.36098">x(t)</text>
    </g>
    <g id="line2d_16">
     <path d="M 346.356429 36.928664 
L 352.187429 36.928664 
L 358.018429 36.928664 
" style="fill:none;stroke:#e41a1c;stroke-linecap:square;stroke-width:0.75;"/>
    </g>
    <g id="line2d_17"/>
    <g id="text_15">
     <text style="font-family:Arial;font-size:8.33px;font-style:normal;font-weight:400;text-anchor:start;" transform="rotate(-0, 367.181429, 39.844164)" x="367.181429" y="39.844164">xc(t)</text>
    </g>
    <g id="line2d_18">
     <path d="M 346.356429 46.411848 
L 352.187429 46.411848 
L 358.018429 46.411848 
" style="fill:none;stroke:#ff7f00;stroke-linecap:square;stroke-width:0.75;"/>
    </g>
    <g id="line2d_19"/>
    <g id="text_16">
     <text style="font-family:Arial;font-size:8.33px;font-style:normal;font-weight:400;text-anchor:start;" transform="rotate(-0, 367.181429, 49.327348)" x="367.181429" y="49.327348">n(t)</text>
    </g>
   </g>
  </g>
  <g id="axes_2">
   <g id="patch_7">
    <path d="M 438.182366 191.8 
L 578.735937 191.8 
L 578.735937 16.8 
L 438.182366 16.8 
z
" style="fill:#ffffff;"/>
   </g>
   <g id="matplotlib.axis_3">
    <g id="xtick_6">
     <g id="line2d_20">
      <g>
       <use style="stroke:#000000;stroke-width:0.8;" x="471.253795" xlink:href="#m5797e01de4" y="191.8"/>
      </g>
     </g>
     <g id="text_17">
      <text style="font-family:Arial;font-size:10px;font-style:normal;font-weight:400;text-anchor:middle;" transform="rotate(-0, 471.253795, 201.957812)" x="471.253795" y="201.957812">−1</text>
     </g>
    </g>
    <g id="xtick_7">
     <g id="line2d_21">
      <g>
       <use style="stroke:#000000;stroke-width:0.8;" x="512.59308" xlink:href="#m5797e01de4" y="191.8"/>
      </g>
     </g>
     <g id="text_18">
      <text style="font-family:Arial;font-size:10px;font-style:normal;font-weight:400;text-anchor:middle;" transform="rotate(-0, 512.59308, 201.957812)" x="512.59308" y="201.957812">0</text>
     </g>
    </g>
    <g id="xtick_8">
     <g id="line2d_22">
      <g>
       <use style="stroke:#000000;stroke-width:0.8;" x="553.932366" xlink:href="#m5797e01de4" y="191.8"/>
      </g>
     </g>
     <g id="text_19">
      <text style="font-family:Arial;font-size:10px;font-style:normal;font-weight:400;text-anchor:middle;" transform="rotate(-0, 553.932366, 201.957812)" x="553.932366" y="201.957812">1</text>
     </g>
    </g>
    <g id="text_20">
     <text style="font-family:Arial;font-size:10px;font-style:normal;font-weight:400;text-anchor:middle;" transform="rotate(-0, 508.459152, 215.103125)" x="508.459152" y="215.103125">x</text>
    </g>
   </g>
   <g id="matplotlib.axis_4">
    <g id="ytick_6">
     <g id="line2d_23">
      <g>
       <use style="stroke:#000000;stroke-width:0.8;" x="438.182366" xlink:href="#mf65fb010cd" y="163.8"/>
      </g>
     </g>
     <g id="text_21">
      <text style="font-family:Arial;font-size:10px;font-style:normal;font-weight:400;text-anchor:end;" transform="rotate(-0, 435.182366, 167.378906)" x="435.182366" y="167.378906">−1.0</text>
     </g>
    </g>
    <g id="ytick_7">
     <g id="line2d_24">
      <g>
       <use style="stroke:#000000;stroke-width:0.8;" x="438.182366" xlink:href="#mf65fb010cd" y="128.8"/>
      </g>
     </g>
     <g id="text_22">
      <text style="font-family:Arial;font-size:10px;font-style:normal;font-weight:400;text-anchor:end;" transform="rotate(-0, 435.182366, 132.378906)" x="435.182366" y="132.378906">−0.5</text>
     </g>
    </g>
    <g id="ytick_8">
     <g id="line2d_25">
      <g>
       <use style="stroke:#000000;stroke-width:0.8;" x="438.182366" xlink:href="#mf65fb010cd" y="93.8"/>
      </g>
     </g>
     <g id="text_23">
      <text style="font-family:Arial;font-size:10px;font-style:normal;font-weight:400;text-anchor:end;" transform="rotate(-0, 435.182366, 97.378906)" x="435.182366" y="97.378906">0.0</text>
     </g>
    </g>
    <g id="ytick_9">
     <g id="line2d_26">
      <g>
       <use style="stroke:#000000;stroke-width:0.8;" x="438.182366" xlink:href="#mf65fb010cd" y="58.8"/>
      </g>
     </g>
     <g id="text_24">
      <text style="font-family:Arial;font-size:10px;font-style:normal;font-weight:400;text-anchor:end;" transform="rotate(-0, 435.182366, 62.378906)" x="435.182366" y="62.378906">0.5</text>
     </g>
    </g>
    <g id="ytick_10">
     <g id="line2d_27">
      <g>
       <use style="stroke:#000000;stroke-width:0.8;" x="438.182366" xlink:href="#mf65fb010cd" y="23.8"/>
      </g>
     </g>
     <g id="text_25">
      <text style="font-family:Arial;font-size:10px;font-style:normal;font-weight:400;text-anchor:end;" transform="rotate(-0, 435.182366, 27.378906)" x="435.182366" y="27.378906">1.0</text>
     </g>
    </g>
    <g id="text_26">
     <text style="font-family:Arial;font-size:10px;font-style:normal;font-weight:400;text-anchor:middle;" transform="rotate(-90, 409.454241, 104.3)" x="409.454241" y="104.3">xc</text>
    </g>
   </g>
   <g id="line2d_28">
    <path clip-path="url(#p7958b851ea)" d="M 553.931074 86.783621 
L 553.820294 91.981135 
L 553.47976 97.468624 
L 552.902582 103.172563 
L 552.094024 108.961168 
L 551.073748 114.670462 
L 549.871507 120.147896 
L 548.518015 125.290265 
L 547.041061 130.041177 
L 545.456142 134.401151 
L 543.778884 138.374515 
L 542.012089 141.995999 
L 540.16335 145.284448 
L 538.239933 148.258124 
L 536.240076 150.945114 
L 534.168617 153.3586 
L 532.039276 155.501097 
L 529.856602 157.384881 
L 527.62393 159.019982 
L 525.353839 160.408078 
L 523.058639 161.552252 
L 520.750048 162.456888 
L 518.42789 163.130195 
L 516.090634 163.577166 
L 513.746965 163.798905 
L 511.404989 163.797328 
L 509.060937 163.573482 
L 506.710576 163.124826 
L 504.36068 162.44894 
L 502.006723 161.539218 
L 499.655396 160.3913 
L 497.302665 158.994514 
L 494.945448 157.334611 
L 492.592581 155.402984 
L 490.264344 153.202197 
L 487.962353 150.71779 
L 485.720597 147.969442 
L 483.564655 144.973589 
L 481.521974 141.752621 
L 479.636692 138.364854 
L 477.925261 134.83296 
L 476.402843 131.180578 
L 475.079407 127.426395 
L 473.955571 123.568576 
L 473.026421 119.581007 
L 472.290683 115.438477 
L 471.748093 111.10507 
L 471.400926 106.526234 
L 471.258259 101.675725 
L 471.331202 96.522233 
L 471.632317 91.07652 
L 472.17056 85.39191 
L 472.942851 79.596912 
L 473.932032 73.852133 
L 475.107478 68.324628 
L 476.440025 63.116466 
L 477.901229 58.292352 
L 479.47071 53.867957 
L 481.138192 49.824699 
L 482.892517 46.147242 
L 484.725962 42.813048 
L 486.64159 39.785691 
L 488.625251 37.060889 
L 490.67779 34.613764 
L 492.802338 32.42418 
L 494.986222 30.491965 
L 497.216188 28.815301 
L 499.478925 27.390771 
L 501.76152 26.21347 
L 504.071713 25.270041 
L 506.399119 24.558818 
L 508.733981 24.077112 
L 511.067259 23.821312 
L 513.411265 23.787658 
L 515.758499 23.976808 
L 518.101874 24.38873 
L 520.455134 25.029279 
L 522.81153 25.902994 
L 525.164394 27.013782 
L 527.52678 28.377321 
L 529.89089 30.002042 
L 532.248175 31.895565 
L 534.588872 34.064553 
L 536.901305 36.514482 
L 539.153732 39.227186 
L 541.330205 42.199197 
L 543.39541 45.39928 
L 545.299989 48.759887 
L 547.041918 52.285574 
L 548.591356 55.925419 
L 549.937421 59.653785 
L 551.091839 63.509312 
L 552.045564 67.47201 
L 552.806822 71.588293 
L 553.37735 75.908406 
L 553.750635 80.449572 
L 553.921068 85.261465 
L 553.877098 90.390562 
L 553.605689 95.808696 
L 553.096672 101.48115 
L 552.3538 107.267128 
L 551.390584 113.028303 
L 550.234346 118.602172 
L 548.923193 123.841968 
L 547.47962 128.708571 
L 545.927984 133.171493 
L 544.273617 137.262147 
L 542.531143 140.985021 
L 540.703288 144.371246 
L 538.805135 147.426924 
L 536.8225 150.201256 
L 534.768134 152.695534 
L 532.656153 154.913051 
L 530.483573 156.873989 
L 528.263541 158.579993 
L 526.00932 160.034305 
L 523.714321 161.250931 
L 521.409534 162.222866 
L 519.086326 162.962815 
L 516.754515 163.473346 
L 514.423205 163.757958 
L 512.080161 163.820564 
L 509.732937 163.66041 
L 507.388675 163.277442 
L 505.033667 162.665976 
L 502.674698 161.821386 
L 500.318465 160.739686 
L 497.951891 159.405356 
L 495.602158 157.824034 
L 493.257541 155.977751 
L 490.927467 153.85969 
L 488.62313 151.464156 
L 486.358351 148.786879 
L 484.167169 145.849123 
L 482.084514 142.681572 
L 480.145059 139.323975 
L 478.380976 135.824326 
L 476.802345 132.196695 
L 475.426073 128.476694 
L 474.247854 124.651251 
L 473.266151 120.707852 
L 472.47686 116.613549 
L 471.879601 112.332556 
L 471.477513 107.828149 
L 471.276868 103.055546 
L 471.288397 97.991144 
L 471.524556 92.625785 
L 471.995769 87.002035 
L 472.703818 81.221209 
L 473.63475 75.445727 
L 474.760733 69.846204 
L 476.050872 64.545218 
L 477.477948 59.610776 
L 479.017686 55.076484 
L 480.656794 50.931622 
L 482.386833 47.153923 
L 484.206064 43.711486 
L 486.098473 40.601467 
L 488.062813 37.795055 
L 490.100072 35.267521 
L 492.196394 33.015799 
L 494.35484 31.01966 
L 496.562405 29.277668 
L 498.805897 27.7868 
L 501.091836 26.532941 
L 503.389283 25.523599 
L 505.706741 24.745931 
L 508.034324 24.197529 
L 510.36284 23.875043 
L 512.704422 23.774362 
L 515.051449 23.896362 
L 517.396707 24.241214 
L 519.753851 24.814381 
L 522.095771 25.612674 
L 524.456506 26.65407 
L 526.80892 27.93606 
L 529.165721 29.475208 
L 531.518697 31.279396 
L 533.858597 33.355611 
L 536.174513 35.709743 
L 538.453047 38.346308 
L 540.660596 41.244647 
L 542.762665 44.374699 
L 544.72489 47.697333 
L 546.515117 51.165132 
L 548.118679 54.753303 
L 549.534414 58.467351 
L 550.750334 62.28502 
L 551.767718 66.216238 
L 552.587864 70.273854 
L 553.216404 74.506499 
L 553.652567 78.965234 
L 553.889503 83.700945 
L 553.915204 88.727164 
L 553.717542 94.052107 
L 553.285774 99.643219 
L 552.618608 105.394649 
L 551.726678 111.166901 
L 550.634797 116.794466 
L 549.370511 122.15668 
L 547.968746 127.147406 
L 546.443976 131.762639 
L 544.82088 135.975258 
L 543.104653 139.818136 
L 541.311019 143.297937 
L 539.429 146.469204 
L 537.471933 149.335118 
L 535.438781 151.920241 
L 533.343287 154.227215 
L 531.200164 156.260674 
L 529.006169 158.040852 
L 526.755533 159.582353 
L 524.479068 160.873895 
L 522.169583 161.929109 
L 519.857914 162.743082 
L 517.534643 163.32796 
L 515.18857 163.689119 
L 512.848519 163.824567 
L 510.501857 163.737424 
L 508.155864 163.427411 
L 505.817393 162.89492 
L 503.472552 162.133385 
L 501.127953 161.138608 
L 498.770311 159.89552 
L 496.407174 158.395355 
L 494.046682 156.630097 
L 491.697942 154.592608 
L 489.371617 152.276818 
L 487.098312 149.699238 
L 484.875352 146.839338 
L 482.755008 143.74592 
L 480.771324 140.457521 
L 478.942598 136.992975 
L 478.764126 136.627602 
L 478.764126 136.627602 
" style="fill:none;stroke:#000000;stroke-linecap:square;stroke-width:0.75;"/>
   </g>
   <g id="line2d_29">
    <path clip-path="url(#p7958b851ea)" d="M 553.931074 86.783621 
L 553.820032 92.029817 
L 553.47838 97.57096 
L 552.898793 103.33235 
L 552.089202 109.161683 
L 551.067664 114.911476 
L 549.864144 120.4269 
L 548.509714 125.603298 
L 547.032569 130.383621 
L 545.448509 134.76868 
L 543.766933 138.777617 
L 541.996139 142.429924 
L 540.143893 145.744919 
L 538.217593 148.741326 
L 536.215483 151.447844 
L 534.1516 153.868023 
L 532.021833 156.025537 
L 529.839385 157.922029 
L 527.617823 159.560838 
L 525.359975 160.952826 
L 523.077985 162.101245 
L 520.772377 163.014422 
L 518.453449 163.694828 
L 516.130813 164.14594 
L 513.801984 164.372699 
L 511.463565 164.376537 
L 509.1343 164.158498 
L 506.798415 163.71658 
L 504.462579 163.048306 
L 502.122082 162.146977 
L 499.772518 161.002181 
L 497.421011 159.606844 
L 495.075053 157.954606 
L 492.732352 156.030706 
L 490.402959 153.827302 
L 488.108811 151.349122 
L 485.863833 148.594247 
L 483.703611 145.589429 
L 481.655375 142.357148 
L 479.755318 138.941029 
L 478.036161 135.393481 
L 476.504408 131.723883 
L 475.665248 129.237534 
L 477.45679 127.4062 
L 478.530546 126.004732 
L 479.196641 124.77968 
L 479.606427 123.561686 
L 479.834617 122.162383 
L 479.913579 120.156688 
L 480.051972 107.288824 
L 480.459284 101.974946 
L 481.084924 96.715208 
L 481.916256 91.597467 
L 482.9388 86.679469 
L 484.132826 82.019981 
L 485.478923 77.654418 
L 486.958096 73.603935 
L 488.552957 69.87706 
L 490.248939 66.471885 
L 492.032059 63.384174 
L 493.888944 60.6079 
L 495.806964 58.135742 
L 497.770427 55.963574 
L 501.00602 52.815817 
L 502.811231 51.448629 
L 504.644139 50.336764 
L 506.490265 49.473476 
L 508.349451 48.846592 
L 510.223473 48.448687 
L 512.10203 48.277749 
L 513.975382 48.330554 
L 515.847748 48.605517 
L 517.723572 49.106338 
L 519.593854 49.836065 
L 521.462395 50.804161 
L 523.331802 52.025222 
L 525.19063 53.508141 
L 527.026584 55.260233 
L 528.826436 57.287006 
L 530.586617 59.607123 
L 532.279646 62.209272 
L 533.888488 65.091608 
L 535.394693 68.24917 
L 536.770851 71.653017 
L 537.998977 75.287667 
L 539.055352 79.11183 
L 539.92558 83.100905 
L 540.593432 87.20407 
L 541.053436 91.414852 
L 541.295922 95.678042 
L 541.317871 99.960966 
L 541.118203 104.230647 
L 540.700388 108.430264 
L 540.069746 112.528572 
L 539.243278 116.450582 
L 538.228258 120.194833 
L 537.050997 123.697124 
L 535.720855 126.963586 
L 534.262995 129.962688 
L 532.685673 132.705474 
L 531.005413 135.185337 
L 529.239103 137.398631 
L 527.403701 139.344525 
L 525.515881 141.024823 
L 523.591698 142.44373 
L 521.631891 143.615267 
L 519.649473 144.542668 
L 517.656645 145.230748 
L 515.66469 145.685717 
L 513.668613 145.915916 
L 511.66222 145.923997 
L 509.654072 145.709293 
L 507.652437 145.27207 
L 505.650177 144.607621 
L 503.640624 143.705372 
L 501.632809 142.558201 
L 499.636159 141.160053 
L 497.646643 139.493395 
L 495.676068 137.549676 
L 493.737376 135.321982 
L 491.844899 132.805323 
L 490.014657 129.996967 
L 488.27546 126.917441 
L 486.644795 123.573948 
L 485.150602 119.999901 
L 483.809724 116.212163 
L 482.645544 112.255609 
L 481.664408 108.128663 
L 481.699646 107.783021 
L 483.584378 105.878543 
L 484.664691 104.486801 
L 485.352756 103.245832 
L 485.830124 101.914845 
L 486.234548 100.060931 
L 488.032243 90.569937 
L 489.131689 86.458558 
L 490.386702 82.617207 
L 491.778874 79.0633 
L 493.28935 75.80913 
L 494.899047 72.862173 
L 496.591899 70.221188 
L 498.346599 67.890339 
L 500.148416 65.861699 
L 501.980727 64.128976 
L 503.831564 62.680775 
L 505.6906 61.505351 
L 507.545426 60.592548 
L 509.39592 59.927481 
L 511.018053 59.564705 
L 512.648129 59.460308 
L 514.273476 59.578629 
L 515.903778 59.921151 
L 517.528491 60.49059 
L 519.156357 61.29929 
L 520.775088 62.355098 
L 522.371576 63.663991 
L 523.949337 65.249044 
L 525.48261 67.108569 
L 526.961532 69.256948 
L 528.35844 71.683149 
L 529.65321 74.381806 
L 530.824655 77.343153 
L 531.84606 80.536267 
L 532.693898 83.922061 
L 533.348876 87.454535 
L 533.798553 91.100378 
L 534.031547 94.805581 
L 534.042797 98.513843 
L 533.832292 102.186796 
L 533.405003 105.769211 
L 532.772428 109.209167 
L 531.947473 112.476495 
L 530.950418 115.529238 
L 529.793412 118.362359 
L 528.500946 120.944123 
L 527.093259 123.263724 
L 525.590682 125.314655 
L 524.01324 127.094423 
L 522.380278 128.604204 
L 520.710119 129.848452 
L 519.019807 130.834493 
L 517.313922 131.576102 
L 515.594698 132.083316 
L 513.873973 132.360985 
L 512.151363 132.415088 
L 510.425614 132.247121 
L 508.695203 131.854012 
L 506.970052 131.232871 
L 505.249257 130.375904 
L 503.533043 129.270908 
L 501.833716 127.910612 
L 500.154489 126.279072 
L 498.510756 124.368824 
L 496.919216 122.175051 
L 495.397931 119.696001 
L 493.966363 116.933435 
L 492.652052 113.909991 
L 491.474469 110.638902 
L 490.458501 107.156313 
L 489.625142 103.50564 
L 488.987658 99.716106 
L 488.557931 95.819475 
L 488.346679 91.870377 
L 488.358067 87.925471 
L 488.470572 85.59032 
L 488.470572 85.59032 
" style="fill:none;stroke:#4daf4a;stroke-dasharray:2.775,1.2;stroke-dashoffset:0;stroke-linecap:round;stroke-width:0.75;"/>
   </g>
   <g id="line2d_30">
    <defs>
     <path d="M 0 1.5 
C 0.397805 1.5 0.77937 1.341951 1.06066 1.06066 
C 1.341951 0.77937 1.5 0.397805 1.5 0 
C 1.5 -0.397805 1.341951 -0.77937 1.06066 -1.06066 
C 0.77937 -1.341951 0.397805 -1.5 0 -1.5 
C -0.397805 -1.5 -0.77937 -1.341951 -1.06066 -1.06066 
C -1.341951 -0.77937 -1.5 -0.397805 -1.5 0 
C -1.5 0.397805 -1.341951 0.77937 -1.06066 1.06066 
C -0.77937 1.341951 -0.397805 1.5 0 1.5 
z
" id="mbe54ddf60a" style="stroke:#000000;stroke-width:0.15;"/>
    </defs>
    <g clip-path="url(#p7958b851ea)">
     <use style="stroke:#000000;stroke-width:0.15;" x="512.59308" xlink:href="#mbe54ddf60a" y="93.8"/>
    </g>
   </g>
   <g id="patch_8">
    <path d="M 438.182366 191.8 
L 438.182366 16.8 
" style="fill:none;stroke:#000000;stroke-linecap:square;stroke-linejoin:miter;stroke-width:0.5;"/>
   </g>
   <g id="patch_9">
    <path d="M 578.735937 191.8 
L 578.735937 16.8 
" style="fill:none;stroke:#000000;stroke-linecap:square;stroke-linejoin:miter;stroke-width:0.5;"/>
   </g>
   <g id="patch_10">
    <path d="M 438.182366 191.8 
L 578.735937 191.8 
" style="fill:none;stroke:#000000;stroke-linecap:square;stroke-linejoin:miter;stroke-width:0.5;"/>
   </g>
   <g id="patch_11">
    <path d="M 438.182366 16.8 
L 578.735937 16.8 
" style="fill:none;stroke:#000000;stroke-linecap:square;stroke-linejoin:miter;stroke-width:0.5;"/>
   </g>
   <g id="legend_2">
    <g id="line2d_31">
     <path d="M 448.178366 161.163822 
L 454.009366 161.163822 
L 459.840366 161.163822 
" style="fill:none;stroke:#000000;stroke-linecap:square;stroke-width:0.75;"/>
    </g>
    <g id="line2d_32"/>
    <g id="text_27">
     <text style="font-family:Arial;font-size:8.33px;font-style:normal;font-weight:400;text-anchor:start;" transform="rotate(-0, 469.003366, 164.079322)" x="469.003366" y="164.079322">LC</text>
    </g>
    <g id="line2d_33">
     <path d="M 448.178366 170.447867 
L 454.009366 170.447867 
L 459.840366 170.447867 
" style="fill:none;stroke:#4daf4a;stroke-dasharray:2.775,1.2;stroke-dashoffset:0;stroke-linecap:round;stroke-width:0.75;"/>
    </g>
    <g id="line2d_34"/>
    <g id="text_28">
     <text style="font-family:Arial;font-size:8.33px;font-style:normal;font-weight:400;text-anchor:start;" transform="rotate(-0, 469.003366, 173.363367)" x="469.003366" y="173.363367">three-pulse</text>
    </g>
    <g id="line2d_35"/>
    <g id="line2d_36">
     <defs>
      <path d="M 0 1.2 
C 0.318244 1.2 0.623496 1.07356 0.848528 0.848528 
C 1.07356 0.623496 1.2 0.318244 1.2 0 
C 1.2 -0.318244 1.07356 -0.623496 0.848528 -0.848528 
C 0.623496 -1.07356 0.318244 -1.2 0 -1.2 
C -0.318244 -1.2 -0.623496 -1.07356 -0.848528 -0.848528 
C -1.07356 -0.623496 -1.2 -0.318244 -1.2 0 
C -1.2 0.318244 -1.07356 0.623496 -0.848528 0.848528 
C -0.623496 1.07356 -0.318244 1.2 0 1.2 
z
" id="m54c97e92cc" style="stroke:#000000;stroke-width:0.15;"/>
     </defs>
     <g>
      <use style="stroke:#000000;stroke-width:0.15;" x="448.178366" xlink:href="#m54c97e92cc" y="179.731912"/>
      <use style="stroke:#000000;stroke-width:0.15;" x="454.009366" xlink:href="#m54c97e92cc" y="179.731912"/>
      <use style="stroke:#000000;stroke-width:0.15;" x="459.840366" xlink:href="#m54c97e92cc" y="179.731912"/>
     </g>
    </g>
    <g id="text_29">
     <text style="font-family:Arial;font-size:8.33px;font-style:normal;font-weight:400;text-anchor:start;" transform="rotate(-0, 469.003366, 182.647412)" x="469.003366" y="182.647412">critical pt</text>
    </g>
   </g>
  </g>
 </g>
 <defs>
  <clipPath id="pdf31cee102">
   <rect height="175" width="351.383929" x="39.485938" y="16.8"/>
  </clipPath>
  <clipPath id="p7958b851ea">
   <rect height="175" width="140.553571" x="438.182366" y="16.8"/>
  </clipPath>
 </defs>
</svg>
