<?xml version="1.0" encoding="utf-8" standalone="no"?>
<!DOCTYPE svg PUBLIC "-//W3C//DTD SVG 1.1//EN"
  "http://www.w3.org/Graphics/SVG/1.1/DTD/svg11.dtd">
<!-- Created with matplotlib (http://matplotlib.org/) -->
<svg height="220pt" version="1.1" viewBox="0 0 582 220" width="582pt" xmlns="http://www.w3.org/2000/svg" xmlns:xlink="http://www.w3.org/1999/xlink">
 <defs>
  <style type="text/css">
*{stroke-linecap:butt;stroke-linejoin:round;}
  </style>
 </defs>
 <g id="figure_1">
  <g id="patch_1">
   <path d="M 0 220.790625 
L 582.335938 220.790625 
L 582.335938 0 
L 0 0 
z
" style="fill:#ffffff;"/>
  </g>
  <g id="axes_1">
   <g id="patch_2">
    <path d="M 39.485938 191.9 
L 390.869866 191.9 
L 390.869866 16.9 
L 39.485938 16.9 
z
" style="fill:#ffffff;"/>
   </g>
   <g id="matplotlib.axis_1">
    <g id="xtick_1">
     <g id="line2d_1">
      <defs>
       <path d="M 0 0 
L 0 -3.5 
" id="m4ffa8139f8" style="stroke:#000000;stroke-width:0.8;"/>
      </defs>
      <g>
       <use style="stroke:#000000;stroke-width:0.8;" x="39.485938" xlink:href="#m4ffa8139f8" y="191.9"/>
      </g>
     </g>
     <g id="text_1">
      <text style="font-family:Arial;font-size:10px;font-style:normal;font-weight:400;text-anchor:middle;" transform="rotate(-0, 39.485938, 202.057813)" x="39.485938" y="202.057813">0</text>
     </g>
    </g>
    <g id="xtick_2">
     <g id="line2d_2">
      <g>
       <use style="stroke:#000000;stroke-width:0.8;" x="127.33192" xlink:href="#m4ffa8139f8" y="191.9"/>
      </g>
     </g>
     <g id="text_2">
      <text style="font-family:Arial;font-size:10px;font-style:normal;font-weight:400;text-anchor:middle;" transform="rotate(-0, 127.33192, 202.057813)" x="127.33192" y="202.057813">20</text>
     </g>
    </g>
    <g id="xtick_3">
     <g id="line2d_3">
      <g>
       <use style="stroke:#000000;stroke-width:0.8;" x="215.177902" xlink:href="#m4ffa8139f8" y="191.9"/>
      </g>
     </g>
     <g id="text_3">
      <text style="font-family:Arial;font-size:10px;font-style:normal;font-weight:400;text-anchor:middle;" transform="rotate(-0, 215.177902, 202.057813)" x="215.177902" y="202.057813">40</text>
     </g>
    </g>
    <g id="xtick_4">
     <g id="line2d_4">
      <g>
       <use style="stroke:#000000;stroke-width:0.8;" x="303.023884" xlink:href="#m4ffa8139f8" y="191.9"/>
      </g>
     </g>
     <g id="text_4">
      <text style="font-family:Arial;font-size:10px;font-style:normal;font-weight:400;text-anchor:middle;" transform="rotate(-0, 303.023884, 202.057813)" x="303.023884" y="202.057813">60</text>
     </g>
    </g>
    <g id="xtick_5">
     <g id="line2d_5">
      <g>
       <use style="stroke:#000000;stroke-width:0.8;" x="390.869866" xlink:href="#m4ffa8139f8" y="191.9"/>
      </g>
     </g>
     <g id="text_5">
      <text style="font-family:Arial;font-size:10px;font-style:normal;font-weight:400;text-anchor:middle;" transform="rotate(-0, 390.869866, 202.057813)" x="390.869866" y="202.057813">80</text>
     </g>
    </g>
    <g id="text_6">
     <text style="font-family:Arial;font-size:10px;font-style:normal;font-weight:400;text-anchor:middle;" transform="rotate(-0, 215.177902, 215.203125)" x="215.177902" y="215.203125">Time /h</text>
    </g>
   </g>
   <g id="matplotlib.axis_2">
    <g id="ytick_1">
     <g id="line2d_6">
      <defs>
       <path d="M 0 0 
L 3.5 0 
" id="ma375daafce" style="stroke:#000000;stroke-width:0.8;"/>
      </defs>
      <g>
       <use style="stroke:#000000;stroke-width:0.8;" x="39.485938" xlink:href="#ma375daafce" y="183.945455"/>
      </g>
     </g>
     <g id="text_7">
      <text style="font-family:Arial;font-size:10px;font-style:normal;font-weight:400;text-anchor:end;" transform="rotate(-0, 36.485938, 187.524361)" x="36.485938" y="187.524361">−1.0</text>
     </g>
    </g>
    <g id="ytick_2">
     <g id="line2d_7">
      <g>
       <use style="stroke:#000000;stroke-width:0.8;" x="39.485938" xlink:href="#ma375daafce" y="144.172727"/>
      </g>
     </g>
     <g id="text_8">
      <text style="font-family:Arial;font-size:10px;font-style:normal;font-weight:400;text-anchor:end;" transform="rotate(-0, 36.485938, 147.751634)" x="36.485938" y="147.751634">−0.5</text>
     </g>
    </g>
    <g id="ytick_3">
     <g id="line2d_8">
      <g>
       <use style="stroke:#000000;stroke-width:0.8;" x="39.485938" xlink:href="#ma375daafce" y="104.4"/>
      </g>
     </g>
     <g id="text_9">
      <text style="font-family:Arial;font-size:10px;font-style:normal;font-weight:400;text-anchor:end;" transform="rotate(-0, 36.485938, 107.978906)" x="36.485938" y="107.978906">0.0</text>
     </g>
    </g>
    <g id="ytick_4">
     <g id="line2d_9">
      <g>
       <use style="stroke:#000000;stroke-width:0.8;" x="39.485938" xlink:href="#ma375daafce" y="64.627273"/>
      </g>
     </g>
     <g id="text_10">
      <text style="font-family:Arial;font-size:10px;font-style:normal;font-weight:400;text-anchor:end;" transform="rotate(-0, 36.485938, 68.206179)" x="36.485938" y="68.206179">0.5</text>
     </g>
    </g>
    <g id="ytick_5">
     <g id="line2d_10">
      <g>
       <use style="stroke:#000000;stroke-width:0.8;" x="39.485938" xlink:href="#ma375daafce" y="24.854545"/>
      </g>
     </g>
     <g id="text_11">
      <text style="font-family:Arial;font-size:10px;font-style:normal;font-weight:400;text-anchor:end;" transform="rotate(-0, 36.485938, 28.433452)" x="36.485938" y="28.433452">1.0</text>
     </g>
    </g>
    <g id="text_12">
     <text style="font-family:Arial;font-size:10px;font-style:normal;font-weight:400;text-anchor:middle;" transform="rotate(-90, 10.757813, 104.4)" x="10.757813" y="104.4">State Value</text>
    </g>
   </g>
   <g id="line2d_11">
    <path clip-path="url(#pb00290ab72)" d="M 39.485938 24.857032 
L 40.417637 24.97088 
L 41.393704 25.319596 
L 42.458504 25.943592 
L 43.63422 26.901839 
L 44.920853 28.248723 
L 46.318403 30.043461 
L 47.826869 32.355387 
L 49.401885 35.183724 
L 51.043452 38.593803 
L 52.751568 42.664177 
L 54.526234 47.481119 
L 56.389634 53.199819 
L 58.386134 60.069057 
L 60.582283 68.449026 
L 63.155549 79.191771 
L 66.483049 94.113697 
L 77.75218 145.430879 
L 80.591646 156.955916 
L 82.809979 165.083645 
L 84.606828 170.868875 
L 85.605078 173.694443 
L 85.611667 173.5508 
L 85.947712 168.703094 
L 86.279363 166.717235 
L 86.60223 165.952208 
L 86.925096 165.698843 
L 87.327032 165.679553 
L 88.291238 165.940918 
L 89.446528 166.141695 
L 90.478821 166.092797 
L 91.515508 165.818777 
L 92.587336 165.300847 
L 93.714073 164.503016 
L 94.913291 163.373156 
L 96.19597 161.849585 
L 97.573094 159.85745 
L 99.053447 157.31199 
L 100.645814 154.117308 
L 102.365571 150.153001 
L 104.241271 145.252335 
L 106.321232 139.173987 
L 108.098974 134.069668 
L 110.33949 128.774143 
L 112.934939 122.044145 
L 116.195889 112.933105 
L 123.383287 91.939974 
L 127.309736 80.95584 
L 130.260119 73.340966 
L 132.744652 67.519481 
L 134.918618 62.967563 
L 136.870751 59.379002 
L 138.623234 56.607274 
L 140.220434 54.485262 
L 141.684533 52.901447 
L 143.015533 51.776257 
L 144.2578 51.005781 
L 145.433516 50.531165 
L 146.564866 50.311763 
L 147.674032 50.324634 
L 148.783199 50.564152 
L 149.914548 51.042017 
L 151.090265 51.78778 
L 152.332531 52.849949 
L 153.641348 54.270841 
L 155.038897 56.125158 
L 156.547364 58.509407 
L 158.166747 61.498101 
L 159.91923 65.21087 
L 161.849179 69.836455 
L 164.000962 75.589464 
L 166.485495 82.890396 
L 169.568978 92.683203 
L 174.58241 109.474894 
L 179.972959 127.286643 
L 183.189542 137.159315 
L 185.829358 144.576889 
L 188.114241 150.358627 
L 190.11074 154.828212 
L 191.020257 156.660603 
L 191.029042 156.488962 
L 191.371676 152.02466 
L 191.716506 150.086301 
L 192.070121 149.229103 
L 192.461075 148.82927 
L 193.021149 148.600359 
L 195.45253 147.827772 
L 196.735209 147.09769 
L 198.074995 146.073142 
L 199.493849 144.700514 
L 201.007147 142.918214 
L 202.634657 140.647607 
L 204.400538 137.790229 
L 206.337735 134.218498 
L 208.496766 129.755114 
L 210.976467 124.097548 
L 213.429812 118.541128 
L 216.289484 114.152222 
L 219.959617 108.083111 
L 230.732808 90.009472 
L 233.645194 85.704249 
L 236.142465 82.396573 
L 238.362995 79.812939 
L 240.379262 77.797531 
L 242.23739 76.245518 
L 243.970325 75.080792 
L 245.597835 74.248657 
L 247.146275 73.70168 
L 248.642002 73.406504 
L 250.104784 73.343913 
L 251.554388 73.505126 
L 253.010581 73.891873 
L 254.499719 74.519725 
L 256.04157 75.414655 
L 257.662491 76.618564 
L 259.375659 78.174681 
L 261.21402 80.153535 
L 263.20393 82.632012 
L 265.391514 85.722373 
L 267.862429 89.611597 
L 270.774815 94.629337 
L 274.642621 101.772702 
L 278.866239 109.797264 
L 278.866239 109.797264 
" style="fill:none;stroke:#377eb8;stroke-linecap:square;stroke-width:0.75;"/>
   </g>
   <g id="line2d_12">
    <path clip-path="url(#pb00290ab72)" d="M 39.485938 96.426843 
L 45.608536 123.693031 
L 49.024769 137.876682 
L 51.842052 148.654901 
L 54.260034 157.057068 
L 56.389634 163.679133 
L 58.275217 168.844154 
L 59.96115 172.845482 
L 61.4918 175.932624 
L 62.889349 178.270557 
L 64.153799 179.973237 
L 65.307332 181.17412 
L 66.372132 181.97776 
L 67.370382 182.461498 
L 68.302082 182.675319 
L 69.211598 182.661511 
L 70.121115 182.427354 
L 71.074998 181.945176 
L 72.073248 181.182052 
L 73.138047 180.078505 
L 74.29158 178.549069 
L 75.533847 176.519087 
L 76.88703 173.864749 
L 78.35113 170.485969 
L 79.948329 166.220484 
L 81.700812 160.87944 
L 83.630762 154.257657 
L 85.613864 146.674443 
L 86.039959 143.156116 
L 86.661532 139.950311 
L 88.141885 133.83081 
L 97.768571 95.422001 
L 100.518425 85.608961 
L 102.835594 78.132209 
L 104.871629 72.285887 
L 106.694615 67.702083 
L 107.899324 65.165608 
L 109.74054 62.22398 
L 111.40429 59.966901 
L 112.934939 58.248782 
L 114.354672 56.976747 
L 115.685672 56.074873 
L 116.927938 55.492983 
L 118.125838 55.173334 
L 119.279371 55.091809 
L 120.432904 55.233359 
L 121.608621 55.607214 
L 122.806521 56.225445 
L 124.07097 57.135501 
L 125.40197 58.374966 
L 126.821703 60.008627 
L 128.352353 62.119835 
L 129.993919 64.771981 
L 131.790769 68.111685 
L 133.742902 72.221945 
L 135.916868 77.33507 
L 138.379217 83.719201 
L 141.285233 91.904497 
L 145.145133 103.498059 
L 153.663531 129.273561 
L 156.59173 137.304745 
L 159.009713 143.314834 
L 161.117129 147.983088 
L 163.002712 151.640675 
L 164.710829 154.485671 
L 166.263662 156.656474 
L 167.683395 158.276076 
L 168.992211 159.448157 
L 170.212294 160.255785 
L 171.365827 160.761613 
L 172.474994 161.008739 
L 173.561977 161.021648 
L 174.64896 160.806897 
L 175.758126 160.353301 
L 176.91166 159.631576 
L 178.109559 158.614799 
L 179.396192 157.223647 
L 180.771559 155.400854 
L 182.257842 153.051661 
L 183.877225 150.059741 
L 185.629708 146.338416 
L 187.559657 141.696432 
L 189.689257 135.971448 
L 191.064184 131.755155 
L 191.499065 129.284366 
L 192.151387 126.929277 
L 193.767915 122.184015 
L 199.135841 107.147154 
L 202.177812 99.273534 
L 204.657513 93.448964 
L 206.814348 88.930352 
L 208.74276 85.38901 
L 210.49107 82.627249 
L 212.094419 80.496299 
L 213.278262 79.242983 
L 215.116623 77.880434 
L 216.842969 76.872091 
L 218.477068 76.170459 
L 220.045276 75.735513 
L 221.573949 75.540785 
L 223.082854 75.572967 
L 224.59176 75.828712 
L 226.127022 76.317246 
L 227.701819 77.054537 
L 229.349095 78.076148 
L 231.082031 79.41839 
L 232.926981 81.135428 
L 234.910302 83.292493 
L 237.07153 85.98008 
L 239.476554 89.337263 
L 242.230801 93.579104 
L 245.604424 99.20638 
L 251.356715 109.321896 
L 256.186531 117.618212 
L 259.29 122.518048 
L 261.859752 126.174439 
L 264.113227 129.007169 
L 266.149261 131.219762 
L 268.013979 132.926898 
L 269.746914 134.219332 
L 271.374424 135.161438 
L 272.916275 135.802025 
L 274.398824 136.18082 
L 275.841838 136.322568 
L 277.271675 136.240352 
L 278.7081 135.934316 
L 278.866239 135.88698 
L 278.866239 135.88698 
" style="fill:none;stroke:#e41a1c;stroke-linecap:square;stroke-width:0.75;"/>
   </g>
   <g id="line2d_13">
    <path clip-path="url(#pb00290ab72)" d="M 39.485938 104.4 
L 85.605078 104.4 
L 85.605078 104.4 
L 85.954301 63.062614 
L 86.303524 44.952426 
L 86.652746 37.018227 
L 87.001969 33.542202 
L 87.353388 32.013184 
L 87.713593 31.336199 
L 88.119921 31.024977 
L 88.706351 30.880228 
L 90.096653 30.833757 
L 107.566574 30.83195 
L 107.566574 30.83195 
L 108.720107 44.458902 
L 109.87364 55.561749 
L 111.027173 64.608022 
L 112.180706 71.978663 
L 113.356422 78.087901 
L 114.532139 83.04596 
L 115.707855 87.069759 
L 116.905755 90.39064 
L 118.103655 93.075162 
L 119.323738 95.281259 
L 120.588188 97.115227 
L 121.897004 98.626018 
L 123.27237 99.877253 
L 124.758653 100.926439 
L 126.378037 101.794552 
L 128.197069 102.513781 
L 130.304486 103.102639 
L 132.855569 103.575269 
L 136.072151 103.934159 
L 140.486634 104.187295 
L 147.430016 104.338016 
L 162.803062 104.395957 
L 191.020257 104.399973 
L 191.020257 104.399973 
L 191.369479 63.062603 
L 191.718702 44.95242 
L 192.067925 37.018225 
L 192.417148 33.5422 
L 192.768567 32.013183 
L 193.128771 31.336199 
L 193.535099 31.024976 
L 194.12153 30.880228 
L 195.511832 30.833757 
L 212.981752 30.83195 
L 212.981752 30.83195 
L 214.141435 44.524333 
L 215.301118 55.66831 
L 216.460801 64.738186 
L 217.620484 72.119986 
L 218.786756 78.158619 
L 219.959617 83.09255 
L 221.139067 87.119031 
L 222.325107 90.401016 
L 223.530913 93.099428 
L 224.756487 95.309666 
L 226.015007 97.130269 
L 227.31965 98.633668 
L 228.696774 99.884655 
L 230.172734 100.925761 
L 231.793654 101.794755 
L 233.612248 102.513781 
L 235.720762 103.102892 
L 238.257569 103.573337 
L 241.473053 103.932976 
L 245.867988 104.186014 
L 252.773373 104.33722 
L 268.0008 104.395798 
L 278.866239 104.39939 
L 278.866239 104.39939 
" style="fill:none;stroke:#ff7f00;stroke-linecap:square;stroke-width:0.75;"/>
   </g>
   <g id="patch_3">
    <path d="M 39.485938 191.9 
L 39.485938 16.9 
" style="fill:none;stroke:#000000;stroke-linecap:square;stroke-linejoin:miter;stroke-width:0.5;"/>
   </g>
   <g id="patch_4">
    <path d="M 390.869866 191.9 
L 390.869866 16.9 
" style="fill:none;stroke:#000000;stroke-linecap:square;stroke-linejoin:miter;stroke-width:0.5;"/>
   </g>
   <g id="patch_5">
    <path d="M 39.485938 191.9 
L 390.869866 191.9 
" style="fill:none;stroke:#000000;stroke-linecap:square;stroke-linejoin:miter;stroke-width:0.5;"/>
   </g>
   <g id="patch_6">
    <path d="M 39.485938 16.9 
L 390.869866 16.9 
" style="fill:none;stroke:#000000;stroke-linecap:square;stroke-linejoin:miter;stroke-width:0.5;"/>
   </g>
   <g id="text_13">
    <!-- $\tau$ = 24.6, Control Applied -->
    <g transform="translate(160.427902 10.9)">
     <text>
      <tspan style="font-family:STIXNonUnicode;font-size:10px;font-style:italic;font-weight:italic;" x="0" y="-0.71875"></tspan>
      <tspan style="font-family:Arial;font-size:10px;font-style:regular;font-weight:regular;" x="4.679993 7.458313 13.298157 16.076477 21.638 27.199524 29.977844 35.539368 38.317688 41.096008 48.317688 53.879211 59.440735 62.219055 65.549133 71.110657 73.332336 76.110657 82.780579 88.342102 93.903625 96.125305 98.346985 103.908508" y="-0.71875"> = 24.6, Control Applied</tspan>
     </text>
    </g>
   </g>
   <g id="legend_1">
    <g id="line2d_14">
     <path d="M 346.356429 27.54548 
L 352.187429 27.54548 
L 358.018429 27.54548 
" style="fill:none;stroke:#377eb8;stroke-linecap:square;stroke-width:0.75;"/>
    </g>
    <g id="line2d_15"/>
    <g id="text_14">
     <text style="font-family:Arial;font-size:8.33px;font-style:normal;font-weight:400;text-anchor:start;" transform="rotate(-0, 367.181429, 30.46098)" x="367.181429" y="30.46098">x(t)</text>
    </g>
    <g id="line2d_16">
     <path d="M 346.356429 37.028664 
L 352.187429 37.028664 
L 358.018429 37.028664 
" style="fill:none;stroke:#e41a1c;stroke-linecap:square;stroke-width:0.75;"/>
    </g>
    <g id="line2d_17"/>
    <g id="text_15">
     <text style="font-family:Arial;font-size:8.33px;font-style:normal;font-weight:400;text-anchor:start;" transform="rotate(-0, 367.181429, 39.944164)" x="367.181429" y="39.944164">xc(t)</text>
    </g>
    <g id="line2d_18">
     <path d="M 346.356429 46.511848 
L 352.187429 46.511848 
L 358.018429 46.511848 
" style="fill:none;stroke:#ff7f00;stroke-linecap:square;stroke-width:0.75;"/>
    </g>
    <g id="line2d_19"/>
    <g id="text_16">
     <text style="font-family:Arial;font-size:8.33px;font-style:normal;font-weight:400;text-anchor:start;" transform="rotate(-0, 367.181429, 49.427348)" x="367.181429" y="49.427348">n(t)</text>
    </g>
   </g>
  </g>
  <g id="axes_2">
   <g id="patch_7">
    <path d="M 438.182366 191.9 
L 578.735937 191.9 
L 578.735937 16.9 
L 438.182366 16.9 
z
" style="fill:#ffffff;"/>
   </g>
   <g id="matplotlib.axis_3">
    <g id="xtick_6">
     <g id="line2d_20">
      <g>
       <use style="stroke:#000000;stroke-width:0.8;" x="471.253795" xlink:href="#m4ffa8139f8" y="191.9"/>
      </g>
     </g>
     <g id="text_17">
      <text style="font-family:Arial;font-size:10px;font-style:normal;font-weight:400;text-anchor:middle;" transform="rotate(-0, 471.253795, 202.057813)" x="471.253795" y="202.057813">−1</text>
     </g>
    </g>
    <g id="xtick_7">
     <g id="line2d_21">
      <g>
       <use style="stroke:#000000;stroke-width:0.8;" x="512.59308" xlink:href="#m4ffa8139f8" y="191.9"/>
      </g>
     </g>
     <g id="text_18">
      <text style="font-family:Arial;font-size:10px;font-style:normal;font-weight:400;text-anchor:middle;" transform="rotate(-0, 512.59308, 202.057813)" x="512.59308" y="202.057813">0</text>
     </g>
    </g>
    <g id="xtick_8">
     <g id="line2d_22">
      <g>
       <use style="stroke:#000000;stroke-width:0.8;" x="553.932366" xlink:href="#m4ffa8139f8" y="191.9"/>
      </g>
     </g>
     <g id="text_19">
      <text style="font-family:Arial;font-size:10px;font-style:normal;font-weight:400;text-anchor:middle;" transform="rotate(-0, 553.932366, 202.057813)" x="553.932366" y="202.057813">1</text>
     </g>
    </g>
    <g id="text_20">
     <text style="font-family:Arial;font-size:10px;font-style:normal;font-weight:400;text-anchor:middle;" transform="rotate(-0, 508.459152, 215.203125)" x="508.459152" y="215.203125">x</text>
    </g>
   </g>
   <g id="matplotlib.axis_4">
    <g id="ytick_6">
     <g id="line2d_23">
      <g>
       <use style="stroke:#000000;stroke-width:0.8;" x="438.182366" xlink:href="#ma375daafce" y="163.9"/>
      </g>
     </g>
     <g id="text_21">
      <text style="font-family:Arial;font-size:10px;font-style:normal;font-weight:400;text-anchor:end;" transform="rotate(-0, 435.182366, 167.478906)" x="435.182366" y="167.478906">−1.0</text>
     </g>
    </g>
    <g id="ytick_7">
     <g id="line2d_24">
      <g>
       <use style="stroke:#000000;stroke-width:0.8;" x="438.182366" xlink:href="#ma375daafce" y="128.9"/>
      </g>
     </g>
     <g id="text_22">
      <text style="font-family:Arial;font-size:10px;font-style:normal;font-weight:400;text-anchor:end;" transform="rotate(-0, 435.182366, 132.478906)" x="435.182366" y="132.478906">−0.5</text>
     </g>
    </g>
    <g id="ytick_8">
     <g id="line2d_25">
      <g>
       <use style="stroke:#000000;stroke-width:0.8;" x="438.182366" xlink:href="#ma375daafce" y="93.9"/>
      </g>
     </g>
     <g id="text_23">
      <text style="font-family:Arial;font-size:10px;font-style:normal;font-weight:400;text-anchor:end;" transform="rotate(-0, 435.182366, 97.478906)" x="435.182366" y="97.478906">0.0</text>
     </g>
    </g>
    <g id="ytick_9">
     <g id="line2d_26">
      <g>
       <use style="stroke:#000000;stroke-width:0.8;" x="438.182366" xlink:href="#ma375daafce" y="58.9"/>
      </g>
     </g>
     <g id="text_24">
      <text style="font-family:Arial;font-size:10px;font-style:normal;font-weight:400;text-anchor:end;" transform="rotate(-0, 435.182366, 62.478906)" x="435.182366" y="62.478906">0.5</text>
     </g>
    </g>
    <g id="ytick_10">
     <g id="line2d_27">
      <g>
       <use style="stroke:#000000;stroke-width:0.8;" x="438.182366" xlink:href="#ma375daafce" y="23.9"/>
      </g>
     </g>
     <g id="text_25">
      <text style="font-family:Arial;font-size:10px;font-style:normal;font-weight:400;text-anchor:end;" transform="rotate(-0, 435.182366, 27.478906)" x="435.182366" y="27.478906">1.0</text>
     </g>
    </g>
    <g id="text_26">
     <text style="font-family:Arial;font-size:10px;font-style:normal;font-weight:400;text-anchor:middle;" transform="rotate(-90, 409.454241, 104.4)" x="409.454241" y="104.4">xc</text>
    </g>
   </g>
   <g id="line2d_28">
    <path clip-path="url(#p9b7dc18195)" d="M 553.931074 86.883621 
L 553.81968 92.095775 
L 553.481092 97.552311 
L 552.898386 103.307376 
L 552.081473 109.139953 
L 551.060282 114.838102 
L 549.861339 120.290058 
L 548.516164 125.396723 
L 547.037909 130.150541 
L 545.466537 134.474636 
L 543.790804 138.448259 
L 542.023577 142.074068 
L 540.179535 145.357606 
L 538.235797 148.364083 
L 536.244881 151.0391 
L 534.182065 153.444028 
L 532.060755 155.58105 
L 529.895092 157.454194 
L 527.64977 159.102636 
L 525.385548 160.490489 
L 523.116251 161.626578 
L 520.801534 162.53931 
L 518.450677 163.22471 
L 516.127069 163.671941 
L 513.785881 163.897053 
L 511.435007 163.898753 
L 509.081947 163.676478 
L 506.733778 163.23036 
L 504.397141 162.561185 
L 502.024574 161.647009 
L 499.676817 160.502861 
L 497.307528 159.097664 
L 494.925229 157.419205 
L 492.589697 155.500441 
L 490.259306 153.297106 
L 487.946962 150.800075 
L 485.714459 148.061429 
L 483.576012 145.090385 
L 481.548875 141.897827 
L 479.653227 138.496634 
L 477.945874 134.978697 
L 476.437957 131.371768 
L 475.097992 127.58411 
L 473.971163 123.728022 
L 473.038926 119.741885 
L 472.300077 115.60049 
L 471.754416 111.267921 
L 471.404742 106.69865 
L 471.258821 101.848395 
L 471.328691 96.694777 
L 471.62693 91.248537 
L 472.161472 85.571846 
L 472.930906 79.775324 
L 473.917358 74.028592 
L 475.090158 68.498765 
L 476.420102 63.287971 
L 477.878727 58.46097 
L 479.44565 54.033475 
L 481.110599 49.986922 
L 482.864435 46.302088 
L 484.684107 42.984085 
L 486.60484 39.939888 
L 488.574296 37.226214 
L 490.617101 34.781211 
L 492.720146 32.602954 
L 494.917161 30.648504 
L 497.149613 28.961311 
L 499.402897 27.534364 
L 501.715103 26.334934 
L 504.023393 25.387313 
L 506.369252 24.666467 
L 508.689325 24.184191 
L 511.028261 23.923758 
L 513.378111 23.886582 
L 515.731308 24.07334 
L 518.080706 24.484006 
L 520.419597 25.117895 
L 522.795459 25.996235 
L 525.147454 27.104914 
L 527.52201 28.47431 
L 529.859193 30.078478 
L 532.203166 31.956746 
L 534.54353 34.119661 
L 536.86772 36.576568 
L 539.114119 39.276453 
L 541.268978 42.210342 
L 543.315547 45.367646 
L 545.234087 48.735832 
L 546.96744 52.223992 
L 548.535662 55.884117 
L 549.89159 59.615357 
L 551.055491 63.47502 
L 552.018039 67.44302 
L 552.790831 71.587641 
L 553.364842 75.89202 
L 553.743474 80.428504 
L 553.919818 85.269783 
L 553.879926 90.393543 
L 553.615201 95.771845 
L 553.109721 101.461088 
L 552.372311 107.241413 
L 551.416966 112.986903 
L 550.262622 118.578189 
L 548.954933 123.825483 
L 547.508174 128.71967 
L 545.961743 133.18142 
L 544.305105 137.289746 
L 542.550676 141.046157 
L 540.712641 144.455098 
L 538.807126 147.523936 
L 536.810763 150.316549 
L 534.778981 152.783281 
L 532.68603 154.983914 
L 530.498247 156.961748 
L 530.498247 156.961748 
L 528.273866 158.672708 
L 526.027466 160.123651 
L 523.721097 161.347712 
L 521.417484 162.319927 
L 519.075288 163.065774 
L 516.757839 163.572781 
L 514.420614 163.858151 
L 512.071603 163.920385 
L 509.718418 163.758725 
L 509.718418 163.758725 
L 507.368252 163.373121 
L 505.027864 162.764186 
L 502.649764 161.911198 
L 500.294861 160.82762 
L 497.916669 159.483569 
L 495.575191 157.904352 
L 493.226119 156.051111 
L 490.879728 153.91319 
L 488.548386 151.48111 
L 486.293607 148.805229 
L 484.128856 145.894375 
L 482.070575 142.758962 
L 480.13822 139.411313 
L 478.389141 135.941723 
L 476.803039 132.298421 
L 475.412344 128.536112 
L 474.236223 124.709384 
L 473.254797 120.756291 
L 472.468155 116.660955 
L 471.873527 112.379181 
L 471.474004 107.874248 
L 471.275817 103.101384 
L 471.289888 98.027945 
L 471.529172 92.653947 
L 472.004033 87.022126 
L 472.714966 81.242697 
L 473.648645 75.46905 
L 474.777279 69.871746 
L 476.070016 64.573302 
L 477.497246 59.649366 
L 479.039252 55.117768 
L 480.680609 50.975776 
L 482.408293 47.210369 
L 484.222949 43.78175 
L 486.113568 40.678357 
L 488.088593 37.860765 
L 490.122201 35.341992 
L 492.225005 33.087293 
L 494.38374 31.094971 
L 496.59914 29.351062 
L 498.84374 27.863922 
L 501.11936 26.619393 
L 503.42987 25.607937 
L 505.749003 24.833922 
L 508.082408 24.288603 
L 510.420983 23.969842 
L 512.756294 23.87465 
L 515.096856 24.00092 
L 517.435524 24.348805 
L 519.781712 24.922528 
L 522.128752 25.72557 
L 524.485968 26.7686 
L 526.846323 28.058465 
L 529.202511 29.601322 
L 531.561792 31.415033 
L 533.899692 33.494713 
L 536.220149 35.859314 
L 538.495253 38.49839 
L 540.695709 41.393777 
L 542.79091 44.51956 
L 544.749715 47.842289 
L 546.542212 51.32152 
L 548.142436 54.910795 
L 549.548497 58.607687 
L 550.75848 62.413295 
L 551.771234 66.331525 
L 552.591513 70.394721 
L 553.220316 74.638381 
L 553.655068 79.099258 
L 553.889843 83.813437 
L 553.914971 88.841476 
L 553.717242 94.157336 
L 553.284584 99.755529 
L 552.615547 105.517285 
L 551.721329 111.29761 
L 550.626596 116.932655 
L 549.360148 122.296824 
L 547.951746 127.303072 
L 546.430236 131.90107 
L 544.803915 136.116081 
L 543.088008 139.952773 
L 541.288785 143.438086 
L 539.411086 146.597314 
L 537.45842 149.453546 
L 535.43294 152.027151 
L 533.335366 154.33531 
L 531.178889 156.379345 
L 528.977354 158.162349 
L 526.729791 159.69842 
L 524.448588 160.989456 
L 522.145758 162.038711 
L 519.832655 162.850682 
L 517.503743 163.434202 
L 517.279091 163.47838 
L 517.279091 163.47838 
" style="fill:none;stroke:#000000;stroke-linecap:square;stroke-width:0.75;"/>
   </g>
   <g id="line2d_29">
    <path clip-path="url(#p9b7dc18195)" d="M 553.931074 86.883621 
L 553.819536 92.016138 
L 553.473923 97.472268 
L 552.889714 103.127598 
L 552.073509 108.856343 
L 551.038289 114.53566 
L 549.82098 119.969674 
L 548.452434 125.061311 
L 546.97056 129.728494 
L 545.3947 133.976462 
L 543.71345 137.881473 
L 541.939295 141.445789 
L 540.08661 144.674467 
L 538.171685 147.575349 
L 536.171151 150.209536 
L 534.097107 152.577055 
L 531.963008 154.679758 
L 529.78309 156.521334 
L 527.522908 158.139259 
L 525.242675 159.498904 
L 522.956361 160.608741 
L 520.624559 161.495867 
L 518.256738 162.156351 
L 515.915615 162.580109 
L 513.557314 162.782281 
L 511.189855 162.761629 
L 508.820848 162.517651 
L 506.457457 162.050545 
L 504.106389 161.361157 
L 501.721157 160.42771 
L 499.361638 159.265474 
L 496.982466 157.843823 
L 494.592246 156.151051 
L 492.249956 154.219927 
L 489.915136 152.007113 
L 487.601085 149.504041 
L 485.369237 146.762217 
L 483.234573 143.79103 
L 481.215278 140.60161 
L 479.332504 137.207157 
L 477.642735 133.698126 
L 476.606208 131.166889 
L 478.43724 129.409634 
L 479.493122 128.103625 
L 480.136612 126.964131 
L 480.519501 125.831861 
L 480.714553 124.530906 
L 480.745573 122.665345 
L 480.565853 110.218871 
L 480.846257 105.082373 
L 481.347619 99.96846 
L 482.06244 94.947635 
L 482.976674 90.094089 
L 484.072323 85.467856 
L 485.331277 81.107081 
L 486.735663 77.036396 
L 488.266292 73.274459 
L 489.908471 69.822387 
L 491.644853 66.684063 
L 493.461161 63.854662 
L 495.347428 61.323251 
L 498.996662 56.958823 
L 500.73559 55.2944 
L 502.529946 53.884536 
L 504.363974 52.727661 
L 506.222724 51.81999 
L 508.092245 51.155764 
L 509.959714 50.727504 
L 511.847335 50.524628 
L 513.711072 50.546513 
L 515.575103 50.788139 
L 517.46389 51.259398 
L 519.334189 51.956271 
L 521.209609 52.894423 
L 523.07928 54.081849 
L 524.93168 55.525127 
L 526.754606 57.229238 
L 528.535095 59.197367 
L 530.286378 61.468575 
L 531.963249 64.011046 
L 533.549214 66.82063 
L 535.026611 69.89023 
L 536.376678 73.209493 
L 537.579787 76.764507 
L 538.602239 80.481796 
L 539.432932 84.334211 
L 540.070212 88.351973 
L 540.492779 92.448158 
L 540.492779 92.448158 
L 540.695311 96.590603 
L 540.674693 100.746521 
L 540.429729 104.882811 
L 539.969168 108.907667 
L 539.304095 112.792439 
L 538.446276 116.511444 
L 537.408066 120.041958 
L 536.202459 123.364191 
L 534.843217 126.461275 
L 533.370363 129.274772 
L 531.77864 131.845018 
L 530.08374 134.164542 
L 528.301811 136.228565 
L 526.449163 138.03491 
L 524.54192 139.583851 
L 522.595691 140.877939 
L 520.625282 141.92179 
L 518.644488 142.721844 
L 516.66594 143.286129 
L 514.662325 143.628484 
L 512.643152 143.746649 
L 510.617698 143.639408 
L 508.594952 143.306567 
L 506.583577 142.748912 
L 504.553824 141.950993 
L 502.552938 140.924136 
L 500.552337 139.646322 
L 498.562601 138.109627 
L 496.595048 136.307472 
L 494.661879 134.234821 
L 492.776396 131.888401 
L 490.95325 129.266968 
L 489.208698 126.37161 
L 487.560785 123.206114 
L 486.029359 119.777345 
L 485.500648 118.232958 
L 487.408018 116.733848 
L 488.40924 115.68139 
L 488.994809 114.752058 
L 489.343239 113.774793 
L 489.547887 112.4849 
L 489.714748 109.561005 
L 490.058704 104.976314 
L 490.595476 100.844069 
L 491.335871 96.860209 
L 492.264184 93.071355 
L 493.362709 89.512872 
L 494.609722 86.218312 
L 495.985099 83.204996 
L 497.466122 80.488604 
L 499.031896 78.074791 
L 500.662104 75.964465 
L 502.337374 74.154336 
L 504.03959 72.637473 
L 507.733273 69.814002 
L 509.154426 69.142644 
L 510.586015 68.710739 
L 512.018745 68.50926 
L 513.450788 68.531111 
L 514.887192 68.775932 
L 516.321185 69.247621 
L 517.745386 69.951706 
L 519.156836 70.89932 
L 520.550118 72.106217 
L 521.901602 73.574303 
L 523.201071 75.318642 
L 524.42137 77.333792 
L 525.539155 79.614301 
L 526.52685 82.140121 
L 527.358457 84.882729 
L 528.008703 87.795893 
L 528.460828 90.845468 
L 528.698553 93.962339 
L 528.715682 97.104103 
L 528.511009 100.207172 
L 528.090471 103.219643 
L 527.468315 106.083682 
L 526.660656 108.766727 
L 525.689362 111.232858 
L 524.575849 113.461708 
L 523.347031 115.431607 
L 522.026552 117.135555 
L 520.637339 118.571762 
L 519.195265 119.747287 
L 517.719786 120.666213 
L 516.228896 121.335979 
L 514.726075 121.769583 
L 513.21894 121.974346 
L 511.707284 121.955217 
L 510.196646 121.71282 
L 509.788155 121.608542 
L 509.788155 121.608542 
" style="fill:none;stroke:#4daf4a;stroke-dasharray:2.775,1.2;stroke-dashoffset:0;stroke-linecap:round;stroke-width:0.75;"/>
   </g>
   <g id="line2d_30">
    <defs>
     <path d="M 0 1.5 
C 0.397805 1.5 0.77937 1.341951 1.06066 1.06066 
C 1.341951 0.77937 1.5 0.397805 1.5 0 
C 1.5 -0.397805 1.341951 -0.77937 1.06066 -1.06066 
C 0.77937 -1.341951 0.397805 -1.5 0 -1.5 
C -0.397805 -1.5 -0.77937 -1.341951 -1.06066 -1.06066 
C -1.341951 -0.77937 -1.5 -0.397805 -1.5 0 
C -1.5 0.397805 -1.341951 0.77937 -1.06066 1.06066 
C -0.77937 1.341951 -0.397805 1.5 0 1.5 
z
" id="mc4bdd540f7" style="stroke:#000000;stroke-width:0.15;"/>
    </defs>
    <g clip-path="url(#p9b7dc18195)">
     <use style="stroke:#000000;stroke-width:0.15;" x="512.59308" xlink:href="#mc4bdd540f7" y="93.9"/>
    </g>
   </g>
   <g id="patch_8">
    <path d="M 438.182366 191.9 
L 438.182366 16.9 
" style="fill:none;stroke:#000000;stroke-linecap:square;stroke-linejoin:miter;stroke-width:0.5;"/>
   </g>
   <g id="patch_9">
    <path d="M 578.735937 191.9 
L 578.735937 16.9 
" style="fill:none;stroke:#000000;stroke-linecap:square;stroke-linejoin:miter;stroke-width:0.5;"/>
   </g>
   <g id="patch_10">
    <path d="M 438.182366 191.9 
L 578.735937 191.9 
" style="fill:none;stroke:#000000;stroke-linecap:square;stroke-linejoin:miter;stroke-width:0.5;"/>
   </g>
   <g id="patch_11">
    <path d="M 438.182366 16.9 
L 578.735937 16.9 
" style="fill:none;stroke:#000000;stroke-linecap:square;stroke-linejoin:miter;stroke-width:0.5;"/>
   </g>
   <g id="legend_2">
    <g id="line2d_31">
     <path d="M 448.178366 161.263822 
L 454.009366 161.263822 
L 459.840366 161.263822 
" style="fill:none;stroke:#000000;stroke-linecap:square;stroke-width:0.75;"/>
    </g>
    <g id="line2d_32"/>
    <g id="text_27">
     <text style="font-family:Arial;font-size:8.33px;font-style:normal;font-weight:400;text-anchor:start;" transform="rotate(-0, 469.003366, 164.179322)" x="469.003366" y="164.179322">LC</text>
    </g>
    <g id="line2d_33">
     <path d="M 448.178366 170.547867 
L 454.009366 170.547867 
L 459.840366 170.547867 
" style="fill:none;stroke:#4daf4a;stroke-dasharray:2.775,1.2;stroke-dashoffset:0;stroke-linecap:round;stroke-width:0.75;"/>
    </g>
    <g id="line2d_34"/>
    <g id="text_28">
     <text style="font-family:Arial;font-size:8.33px;font-style:normal;font-weight:400;text-anchor:start;" transform="rotate(-0, 469.003366, 173.463367)" x="469.003366" y="173.463367">three-pulse</text>
    </g>
    <g id="line2d_35"/>
    <g id="line2d_36">
     <defs>
      <path d="M 0 1.2 
C 0.318244 1.2 0.623496 1.07356 0.848528 0.848528 
C 1.07356 0.623496 1.2 0.318244 1.2 0 
C 1.2 -0.318244 1.07356 -0.623496 0.848528 -0.848528 
C 0.623496 -1.07356 0.318244 -1.2 0 -1.2 
C -0.318244 -1.2 -0.623496 -1.07356 -0.848528 -0.848528 
C -1.07356 -0.623496 -1.2 -0.318244 -1.2 0 
C -1.2 0.318244 -1.07356 0.623496 -0.848528 0.848528 
C -0.623496 1.07356 -0.318244 1.2 0 1.2 
z
" id="m08a0670db1" style="stroke:#000000;stroke-width:0.15;"/>
     </defs>
     <g>
      <use style="stroke:#000000;stroke-width:0.15;" x="448.178366" xlink:href="#m08a0670db1" y="179.831913"/>
      <use style="stroke:#000000;stroke-width:0.15;" x="454.009366" xlink:href="#m08a0670db1" y="179.831913"/>
      <use style="stroke:#000000;stroke-width:0.15;" x="459.840366" xlink:href="#m08a0670db1" y="179.831913"/>
     </g>
    </g>
    <g id="text_29">
     <text style="font-family:Arial;font-size:8.33px;font-style:normal;font-weight:400;text-anchor:start;" transform="rotate(-0, 469.003366, 182.747413)" x="469.003366" y="182.747413">critical pt</text>
    </g>
   </g>
  </g>
 </g>
 <defs>
  <clipPath id="pb00290ab72">
   <rect height="175" width="351.383929" x="39.485938" y="16.9"/>
  </clipPath>
  <clipPath id="p9b7dc18195">
   <rect height="175" width="140.553571" x="438.182366" y="16.9"/>
  </clipPath>
 </defs>
</svg>
